<?xml version="1.0" standalone="no"?>
<svg version="1.0"
  xmlns="http://www.w3.org/2000/svg" viewBox="0 0 183.78 220.21" preserveAspectRatio="xMidYMid meet">
  <defs>
    <style>.cls-1,.cls-2{fill:#463c8c;stroke-miterlimit:10;}.cls-1{stroke:#323387;}.cls-2{stroke:#a85396;}</style>
  </defs>
  <title>Recurso 8</title>
  <g id="Capa_2" data-name="Capa 2">
    <g id="Capa_1-2" data-name="Capa 1">
      <path class="cls-1" d="M114.9,76.87c2.27-4.51,4.8-8.63,7.29-12.94,1,.55,1.72.92,2.41,1.36,14.4,9,28.77,18.12,43.19,27.12,7.1,4.44,12.24,10.32,14.42,18.56,3.56,13.44-2,26.81-13.16,33.29q-15.47,9-30.92,18-44.5,26-89,52c-3.84,2.24-7.76,4.25-12.24,5-12.63,2-22.7-2.18-30.28-12.37C1.93,200.57.52,193.29.51,185.65q0-25.8,0-51.6,0-43.83,0-87.66C.52,39.22,2,32.46,6,26.4,14,14.47,29.33,9.24,44,16a35.24,35.24,0,0,1,4.14,2.26q16.38,10.4,32.71,20.87c.84.53,1.59,1.19,2.51,1.89L75.69,53.45c-1.16-.58-2.15-1-3-1.54Q57.82,42.43,43,32.92a57.1,57.1,0,0,0-5-3c-10.08-5.09-21.12.93-21.83,12.2-.49,7.83-.3,15.71-.31,23.57q0,41.88,0,83.77c0,12.48-.08,25-.13,37.44a20.1,20.1,0,0,0,1.74,8.62c3.54,7.73,9.73,10.31,18,8.5a22.8,22.8,0,0,0,6.34-2.69c13.57-7.89,27.09-15.89,40.64-23.82q27.39-16,54.8-32c7.74-4.52,15.44-9.1,23.17-13.63,10.67-6.25,9.44-19.7.88-25.37-6.16-4.08-12.47-7.94-18.71-11.9l-25.5-16.2C116.46,78.05,115.89,77.59,114.9,76.87Z"/>
      <path class="cls-2" d="M100,83.23a16,16,0,0,0-3,8.11c.94-.46,1.86-.94,2.8-1.38a36.84,36.84,0,0,1,4.77-2.14,10.92,10.92,0,0,0,5.83-3.49,3.15,3.15,0,0,1,1.61-1,9.49,9.49,0,0,1-5.06,4.89c-1.37.55-2.78,1-4.12,1.62A12.83,12.83,0,0,0,100,91.58c-.37.31-.39,1-.55,1.51a42.9,42.9,0,0,0,6.79.8,5.8,5.8,0,0,0,3.56-1.74,10.57,10.57,0,0,1,4.91-2.75c2-.62,3.78-2.19,5.57-3.46.92-.66,1.66-1.57,2.66-2.18-1,2.71-3.36,4.14-5.5,6.06,3,1,5.85-.62,8.71,0-.32,1.18-1.25,1.09-2,1.11-2.59.07-5.17.06-7.75.07-1.2,0-2.39,0-3,0l-6.63,4.61,4.44.38a2.89,2.89,0,0,1-3.32.94c-3.05-.93-5.59.13-8.57,1.92,1.54.36,2.72.58,3.86.93,6.45,2,12.62.7,18.59-1.8,3.26-1.37,6.45-2.16,9.91-1.09a15,15,0,0,1,1.64.74l-.12.56a31.45,31.45,0,0,0-5.75-.6,15.68,15.68,0,0,0-5.76,1.86l11.25,2.79a8.2,8.2,0,0,1-5.34,0c-1.24-.34-2.47-.74-3.73-1A25.57,25.57,0,0,0,108.91,103l3.36,1.06c2.2.66,4.45,1.17,6.58,2,1.91.75,3.7,1.71,5.85.54a3,3,0,0,1-2.17,1.79L108.26,104l-5.64,7a6.31,6.31,0,0,0,5.4-.38c4.13-2.09,8-.86,12,.2l0,.57-6.21-.6-8.62,4-2.75-2.41A7.1,7.1,0,0,0,99,116c3.44,1.4,6.91.58,10.28.55s6.61-.82,10-.94c-2.57,1.33-5.51,1.44-8.22,2.59.46,1.85,2,1.73,3.13,1.77a85.68,85.68,0,0,0,10.51-.1c3.8-.32,6.92,1.09,10.06,2.69l-.11.55a4.44,4.44,0,0,1-1.38-.14,18.64,18.64,0,0,0-10.47-1.67,42.94,42.94,0,0,1-9.92-.38c-2.3-.24-2.35-.52-3.56-2.83l-11.88-.61-4.2,5.28c1.21.06,1.9.11,2.6.12a18.48,18.48,0,0,1,3.87.06,15.19,15.19,0,0,0,8.63-.9c2.67-1,6.22.64,7.64,3.5-1-.59-1.58-.89-2.11-1.27a6.12,6.12,0,0,0-6.52-.78,11.53,11.53,0,0,1-7.23.83c-2.5-.45-5.14-.09-7.95-.09l-7.47,10,4,5.25c.39-1.34.65-2.17.87-3,.36-1.41.76-2.82,1-4.25a6.41,6.41,0,0,0-.15-1.79c1.25-1.66,4.69-.76,4.16-4.56,3.61,2.61,6.91,0,10.88.52a10.28,10.28,0,0,1-2,1.06c-2.33.49-4.63,1.29-7.09.73-.4-.09-.91.32-1.56.57.84,1.5,2.14,1.67,3.36,1.88a28.71,28.71,0,0,0,3.59.35,9.55,9.55,0,0,1,5.21,1.61,6,6,0,0,0,4.51.94c5.36-.87,10,.9,14.43,3.65a17,17,0,0,1,3.43,2.35,4.13,4.13,0,0,1-1.38-.13c-2.08-1-4.13-2.06-6.18-3.1a13.54,13.54,0,0,0-8.8-1.63,9.89,9.89,0,0,1-7.18-1.37,8,8,0,0,0-3.65-1.13,28.14,28.14,0,0,1-7.9-1.23,2.61,2.61,0,0,0-1.49,0c4.69,3,9,6.3,11.42,11l16.14,3.49a9.35,9.35,0,0,1-1.63.46,20.53,20.53,0,0,1-7.57-1.34,52.5,52.5,0,0,0-7.25-1.37c-2.74-4.3-6.28-8.51-11.83-10.5-.83.87-.49,1.59.26,2.31,3.22,3,3.13,7.29,4.11,11.15,0,0-.13.12-.49.45a21.26,21.26,0,0,1-1.19-2.7c-.33-1.15-.44-2.36-.69-3.53-.35-1.66-.9-3.22-2.8-4.06a14.67,14.67,0,0,0-1.69,6.78,6.2,6.2,0,0,0,3.08,5.83c1.81,1.08,3.5,2.34,5.48,3.68-1.83.06-2,0-6-2.64-1.9-1.24-2.1-1.53-3.76-5.5-2.48,4.16-2.91,8.3-.38,12.92-2.65-1.65-2.84-2.35-2.78-8.38L79.88,141l-3.13,3.41a27.2,27.2,0,0,0,3.62,10.48,21.14,21.14,0,0,1,2.25,5.58,5.41,5.41,0,0,0,3.09,4c1.18.53,2.4,1,3.58,1.49,1,.44,2.09.78,2.22,2.28-2.21-1-4.33-1.9-6.43-2.86a5.61,5.61,0,0,1-3.52-4.64c-.26-2.52-1.58-4.48-3.12-6.88-.54,4.1-3.4,6.38-5.51,9.18a2.35,2.35,0,0,1,.91-2.66c4.57-4.21,3.26-9.08,1.75-14.55L71,151.34l.82,4-.53.19-1.55-2c-1.25,6.05-3.39,11.34-7.28,15.87-1.14,1.34-1.77,3.12-2.89,5.17-.14-.92-.42-1.48-.25-1.8a27,27,0,0,1,2.83-4.72c3.07-3.62,4.37-8,5.72-12.42C62,162.35,57.46,169.93,52.15,177s-10.45,14.21-16,21.14c8.46-17.2,17.82-33.92,25.48-51.63-1.59-2.69-1.34-5.36-.06-8.15.82-1.81,1.41-3.87-.3-5.66-3.18,1.55-7,5.56-10.28,10.73a2.88,2.88,0,0,1,.82-3.29c2.65-2.82,5.39-5.57,8.08-8.35a6.18,6.18,0,0,0,1-1.26,13.54,13.54,0,0,1,9.12-6.35l-4,2.87c.63,2.11,1.24,4.16,1.86,6.22,2-4.26,3.9-8.52,6-13.2l-5.58-.29a19.78,19.78,0,0,1-3.1,1.86c-2.66,1-3.83,3-4.39,5.57-.08.35-.15.7-.26,1.22-2.34-.68-4.21.24-5.93,1.56a8.09,8.09,0,0,1-5.39,1.85A10.66,10.66,0,0,0,41,134.72a3.91,3.91,0,0,1-1.06.48c.82-2.11,3.55-4.46,6.13-4.38a17.34,17.34,0,0,0,10.81-3.43,11.87,11.87,0,0,1,3-1l.9-2.45L56.37,123l-9.69,3c2,.52,3.33,1.22,4.68,1.17s2.66-.88,4.2-1.44c-.17,1.56-1.66,1.81-2,3.1-1.39-.27-2.56-.44-3.69-.74s-2.26-.83-3.42-1.1-2.32.36-3.86-.7l12.53-4c-2.17-1.49-4-.76-5.73-.87a54.09,54.09,0,0,0-5.55,0,43.46,43.46,0,0,0-5.47.52A32.87,32.87,0,0,0,33,123.41c-1.71.61-3.34,1.49-5.53,2.49.5-.8.64-1.33,1-1.53a28.69,28.69,0,0,1,13.86-4.2c3-.12,5.92-.08,8.87-.13a4.23,4.23,0,0,0,2.46-.7H46.73l5-7c-1.9-1.69-4.42-1.4-6.47-2.44,1.2-.79,1.2-.79,7.6.92l4-5.33c-3.62.43-6.57,2.59-9.93.79a42.23,42.23,0,0,0,5.75-.9c1.74-.5,3.79-.22,5.64-1.94a20.1,20.1,0,0,0-8.27-.1c-3.91.74-7.74.1-11.57-.43a5.74,5.74,0,0,1-2.91-1.45A27.68,27.68,0,0,0,25,95.76,7.82,7.82,0,0,1,22,94.21a2.71,2.71,0,0,1,.95-.16c4.12.87,8.14,2.25,11.25,5,2.73,2.47,5.82,2.94,9.13,3.23a16.49,16.49,0,0,0,3.46-.15c-4.76-2.09-9-4.68-10.94-10.37.64.33,1.14.42,1.26.68,2.11,4.81,6.32,7,10.85,8.86a4.37,4.37,0,0,1,.9.56H59.51l2-2.66c-1-1.67-2.54-1.92-4.16-1.9-2.41,0-4.81.08-7.21.07a9,9,0,0,1-1.75-.37l0-.59a5.93,5.93,0,0,1,1.5-.39c2.31,0,4.61.07,6.92.06a19.93,19.93,0,0,0,2.59-.45c-3.69-2.73-7.71-4.4-9.72-8.62a18.13,18.13,0,0,0-4.33.3c-3.4,1.08-6.54,0-9.75-.71-.13,0-.22-.27-.52-.67,1.64-.64,3,.46,4.5.36,1.63-.12,3.28.09,4.91,0s3.08-.44,4.65-.68c.62-3.51-3.13-3.24-4.3-5.2,3.11.07,5.31,1.54,5.63,4.14.37,3,2,4.88,4.25,6.5C56,92,57.38,93,58.86,94c.63-3.28-2-5.29-2.83-7.84l.68-.36,3,4.58,6.58,1.82,1.24-2c-.94-2.57-1.67-4.85-2.6-7a12.16,12.16,0,0,0-2.06-3.23c-2.46-2.75-5-5.39-7.56-8.08-.51-.54-1.11-1.06-.33-2,2.07,2.18,4.13,4.31,6.14,6.5,2.62,2.86,5.29,5.71,5.91,9.6.49-2.87,1.09-5.77,1.44-8.7a14.36,14.36,0,0,0-.24-4.38,7.16,7.16,0,0,1,1.22-6.26,39.81,39.81,0,0,0,2.84-5c.1,1.07.31,1.61.14,2a14.29,14.29,0,0,1-1.75,3.13,6.22,6.22,0,0,0-1.21,6,10.33,10.33,0,0,1-.29,6.5,14.29,14.29,0,0,0,0,8.23,13.27,13.27,0,0,0,1.68-1.54c1.67-2.21,3.33-4.44,4.89-6.73a13.59,13.59,0,0,0,1.06-2.78,6.61,6.61,0,0,0,2-1.34q7.49-10,14.82-20.08c1.75-2.42,1.85-5.37,2.1-8.22.12-1.37,0-2.77.12-4.15A3.92,3.92,0,0,1,97.61,39c-.37,3.66-.74,7.45-1.11,11.23l.61.26L133.81.59l.27.09a9,9,0,0,1-.5,1.57Q116.33,36.38,99.06,70.49c-1.17,2.32-1.21,2.58-.42,5.7l3-2.1.34.39L98.9,78.14V83l.73-.12ZM91.81,85a156.8,156.8,0,0,0-7.74,15.76H95.49c.57-2.44,1.15-4.89,1.88-8L90.75,99c.73-2.39,2.88-4,2.83-6.73C93.53,89.79,93.55,87.35,91.81,85Zm-6,62.13c1-2.46,3.14-4.25,2.77-7.07l-.86.74-4.4-4.72c-.61.81-1.63,2.2-2.76,3.72C82.87,141.89,83,145.29,85.81,147.14ZM61.93,131c1.3,2.51,1.92,4.85.88,7.36-.32.76-.63,1.53-.89,2.31a4.53,4.53,0,0,0,.53,4.32c1.52-3.14,2.94-6,4.29-8.92a2.81,2.81,0,0,0,.15-1.6c-.3-1.72-.65-3.44-1.09-5.12a7.57,7.57,0,0,0-1.23-1.74C63.56,128.92,62.74,130,61.93,131ZM95.26,90.63a18.38,18.38,0,0,0,1.28-15.3c-1.5,2.9-3,5.8-4.08,7.92Zm-29.46,29c-2.84-.13-5.68-.27-8.52-.38a6.55,6.55,0,0,0-1.3.22c.3,2.24.57,2.47,2.31,2.85C61.3,123,63.5,121.3,65.8,119.63ZM60.62,95.1h3.73l1.17-1.82-5.76-1.71C60.13,93.08,60.36,94,60.62,95.1ZM104.48,95c-3.9-1.17-5.07-.61-6.28,2.78Z"/>
      <path class="cls-2" d="M42.2,68.43c.73,1,1.53,1.95,2.16,3A12,12,0,0,1,45.44,74a5.54,5.54,0,0,0,4.81,4c4.66.73,8.12,3.31,10.84,7a2.72,2.72,0,0,1,.54,1.92A14.88,14.88,0,0,1,60,85.37C57.32,82,54.08,79.66,49.68,79c-2.78-.4-4.54-2.12-5.48-4.85a50.3,50.3,0,0,0-2.51-5.31Z"/>
      <path class="cls-2" d="M99.63,82.88c2.85-7.58,8.25-13.46,13-19.77a2.92,2.92,0,0,1-1,3.32,28.09,28.09,0,0,0-3,3.49c-1.14,1.43-2.26,2.89-3.31,4.38-.63.89-1.09,1.9-1.64,2.83q-1.82,3.06-3.65,6.1Z"/>
      <path class="cls-2" d="M91,30.32c1.33,1.57,1.61,3.25.91,4.57-2.16,4.11-1.26,8.23-.57,12.41A9.21,9.21,0,0,1,91,51.24a5.62,5.62,0,0,1-.67-1.46c-.39-2.73-.81-5.47-1-8.22a9.94,9.94,0,0,1,.57-4.05,11.3,11.3,0,0,0,.85-5.93A4.44,4.44,0,0,1,91,30.32Z"/>
      <path class="cls-2" d="M39.7,119.8c-2.37-.26-4.07-.49-5.78-.64-2.47-.21-4.94-.43-7.42-.54-2.31-.11-4.4-.62-5.71-2.73a3.21,3.21,0,0,1-.27-1.84c1.61,3.13,4.31,3.23,7.28,3.31a98.93,98.93,0,0,1,10.4,1.23C38.55,118.64,38.84,119.09,39.7,119.8Z"/>
      <path class="cls-2" d="M85.76,47.17a8,8,0,0,1,1,7.54c-1,2.7-2.18,5.36-3.35,8.22-.89-1-.39-1.87-.09-2.66.59-1.54,1.24-3.06,1.91-4.57A8.11,8.11,0,0,0,85.51,49a8.5,8.5,0,0,1-.34-1.78Z"/>
      <path class="cls-2" d="M114.94,79.46c-2.1,1.71-4.67,1.49-6.46,2.82s-3.34,2.81-4.9,4.13C103.68,83.14,109.58,79.25,114.94,79.46Z"/>
      <path class="cls-2" d="M37.23,114.64c3.17-2.3,6.53-1.62,9.66.94-2,.62-3.25-1.2-4.91-1.23S38.82,114.54,37.23,114.64Z"/>
      <path class="cls-2" d="M120.68,55.05a16.15,16.15,0,0,1,1.4-8.35A17.7,17.7,0,0,1,120.68,55.05Z"/>
    </g>
  </g>
</svg>
